<svg xmlns="http://www.w3.org/2000/svg" width="25.182" height="37.601" viewBox="0 0 25.182 37.601">
  <path id="iconfinder_Tilda_Icons_1ed_lightbulb_14_3586363" d="M41.946,7.636A12.588,12.588,0,0,0,25.488,26.679a7.563,7.563,0,0,1,2.392,5.171.705.705,0,0,0,.018.109v6.46a.644.644,0,0,0,.644.644h.642a3.57,3.57,0,0,0,3.3,3.306H35.4a3.569,3.569,0,0,0,3.3-3.306h.642a.645.645,0,0,0,.644-.644V31.856s0,0,0,0a7.076,7.076,0,0,1,2.451-5.212,12.579,12.579,0,0,0-.492-19ZM31.664,19.864h-.99a.99.99,0,1,1,.99-.99Zm4.557-.99a.99.99,0,1,1,.991.99h-.989ZM35.833,32.45H38.7v5.325H29.186V32.45h6.171m-2.405-1.289V21.153h1.983l.015,10.009Zm2.452,9.92H32.479a2.243,2.243,0,0,1-1.992-2.018H37.4A2.243,2.243,0,0,1,35.4,41.081Zm6.164-15.392a8.458,8.458,0,0,0-2.832,5.472h-2.5l-.014-10.009h.987a2.279,2.279,0,1,0-2.279-2.278v.989H32.952v-.99a2.279,2.279,0,1,0-2.279,2.279h.99V31.162H29.1a8.747,8.747,0,0,0-2.746-5.438,11.3,11.3,0,1,1,15.216-.034Z" transform="translate(-21.352 -4.769)" fill="#ffc4c4"/>
</svg>
