<svg id="Page-1" xmlns="http://www.w3.org/2000/svg" width="24.436" height="36.073" viewBox="0 0 24.436 36.073">
  <g id="icon-116-lock-open" transform="translate(0 0)">
    <path id="_-ock-open" data-name="-ock-open" d="M26.946,10.891V9.726a8.727,8.727,0,0,0-17.455,0v8.728h0A3.494,3.494,0,0,0,6,21.957V33.571a3.5,3.5,0,0,0,3.5,3.5H26.935a3.494,3.494,0,0,0,3.5-3.5V21.957a3.5,3.5,0,0,0-3.491-3.5H13.014a5.281,5.281,0,0,1-.032-.581V9.727a5.236,5.236,0,0,1,10.473,0v4.655a1.745,1.745,0,1,0,3.491,0V10.891ZM25.782,9.72a7.564,7.564,0,0,0-15.127,0V17.88q0,.29.022.574h1.142V9.738a6.4,6.4,0,1,1,12.8,0v4.647a.587.587,0,0,0,.582.579h0a.573.573,0,0,0,.582-.571V9.72ZM17.636,27.664v3.019a.582.582,0,0,0,1.164,0V27.664a1.745,1.745,0,1,0-1.164,0Zm-1.164.681v2.325a1.745,1.745,0,1,0,3.491,0V28.346a2.909,2.909,0,1,0-3.491,0ZM9.488,19.618a2.328,2.328,0,0,0-2.324,2.334V33.575a2.327,2.327,0,0,0,2.324,2.334H26.949a2.328,2.328,0,0,0,2.324-2.334V21.952a2.327,2.327,0,0,0-2.324-2.334Z" transform="translate(-6 -1)" fill="#ffc4c4" fill-rule="evenodd"/>
  </g>
</svg>
