<svg xmlns="http://www.w3.org/2000/svg" width="33.961" height="27.055" viewBox="0 0 33.961 27.055">
  <path id="iconfinder_wifi_Symbol_925808" d="M17.882,47.087a7.018,7.018,0,0,0-5.34,2.373c-1.187,1.424-3.323-.475-2.136-1.9a10.071,10.071,0,0,1,14.951,0c1.187,1.424-.949,3.323-2.136,1.9A7.018,7.018,0,0,0,17.882,47.087Zm0,9.968a2.848,2.848,0,1,1,2.848-2.848A2.888,2.888,0,0,1,17.882,57.055Zm0-17.087A13.7,13.7,0,0,0,7.914,44c-1.187,1.187-3.441-.593-2.017-2.017A16.769,16.769,0,0,1,17.882,37.12a16.769,16.769,0,0,1,11.985,4.865c1.424,1.424-.831,3.2-2.017,2.017A13.7,13.7,0,0,0,17.882,39.968Zm0-7.12A20.977,20.977,0,0,0,3.4,38.544c-1.424,1.305-3.441-.712-2.017-2.017a24.106,24.106,0,0,1,32.988,0c1.424,1.305-.593,3.323-2.017,2.017A20.977,20.977,0,0,0,17.882,32.848Z" transform="translate(-0.901 -30)" fill="#ffc4c4"/>
</svg>
