<svg xmlns="http://www.w3.org/2000/svg" width="903" height="220" viewBox="0 0 903 220">
  <g id="Group_1270" data-name="Group 1270" transform="translate(-250 -673)">
    <g id="Group_1269" data-name="Group 1269">
      <rect id="X-Axis.5" width="822.038" height="0.758" transform="translate(323.98 682)" fill="#eaf0f4"/>
      <rect id="X-Axis.5-2" data-name="X-Axis.5" width="822.038" height="0.758" transform="translate(323.98 729)" fill="#eaf0f4"/>
      <rect id="X-Axis.5-3" data-name="X-Axis.5" width="822.038" height="0.758" transform="translate(323.98 776)" fill="#eaf0f4"/>
      <rect id="X-Axis.5-4" data-name="X-Axis.5" width="822.038" height="0.758" transform="translate(323.98 823)" fill="#eaf0f4"/>
      <rect id="X-Axis.5-5" data-name="X-Axis.5" width="822.038" height="0.758" transform="translate(323.98 870)" fill="#eaf0f4"/>
    </g>
    <rect id="Rectangle_1662" data-name="Rectangle 1662" width="28" height="125" rx="5" transform="translate(323 747)"/>
    <rect id="Rectangle_1663" data-name="Rectangle 1663" width="27" height="73" rx="5" transform="translate(358 799)" fill="#ffc4c4"/>
    <text id="Nov" transform="translate(323 890)" font-size="12" font-family="SegoeUI, Segoe UI" opacity="0.5"><tspan x="0" y="0">Nov</tspan></text>
    <rect id="Rectangle_1662-2" data-name="Rectangle 1662" width="28" height="164" rx="5" transform="translate(477 708)"/>
    <rect id="Rectangle_1663-2" data-name="Rectangle 1663" width="27" height="53" rx="5" transform="translate(512 819)" fill="#ffc4c4"/>
    <text id="Dec" transform="translate(477 890)" font-size="12" font-family="SegoeUI, Segoe UI" opacity="0.5"><tspan x="0" y="0">Dec</tspan></text>
    <rect id="Rectangle_1662-3" data-name="Rectangle 1662" width="28" height="183" rx="5" transform="translate(631 689)"/>
    <rect id="Rectangle_1663-3" data-name="Rectangle 1663" width="27" height="66" rx="5" transform="translate(666 806)" fill="#ffc4c4"/>
    <text id="Jan" transform="translate(631 890)" font-size="12" font-family="SegoeUI, Segoe UI" opacity="0.5"><tspan x="0" y="0">Jan</tspan></text>
    <rect id="Rectangle_1662-4" data-name="Rectangle 1662" width="28" height="171" rx="5" transform="translate(784 701)"/>
    <rect id="Rectangle_1663-4" data-name="Rectangle 1663" width="27" height="86" rx="5" transform="translate(819 786)" fill="#ffc4c4"/>
    <text id="Feb" transform="translate(784 890)" font-size="12" font-family="SegoeUI, Segoe UI" opacity="0.5"><tspan x="0" y="0">Feb</tspan></text>
    <rect id="Rectangle_1662-5" data-name="Rectangle 1662" width="28" height="140" rx="5" transform="translate(938 732)"/>
    <rect id="Rectangle_1663-5" data-name="Rectangle 1663" width="27" height="140" rx="5" transform="translate(973 732)" fill="#ffc4c4"/>
    <text id="Mar" transform="translate(938 890)" font-size="12" font-family="SegoeUI, Segoe UI" opacity="0.5"><tspan x="0" y="0">Mar</tspan></text>
    <rect id="Rectangle_1662-6" data-name="Rectangle 1662" width="28" height="116" rx="5" transform="translate(1091 756)"/>
    <rect id="Rectangle_1663-6" data-name="Rectangle 1663" width="27" height="140" rx="5" transform="translate(1126 732)" fill="#ffc4c4"/>
    <text id="Apr" transform="translate(1091 890)" font-size="12" font-family="SegoeUI, Segoe UI" opacity="0.5"><tspan x="0" y="0">Apr</tspan></text>
    <g id="Group_1264" data-name="Group 1264" transform="translate(11)">
      <g id="Group_1265" data-name="Group 1265">
        <text id="_5_000" data-name="5,000" transform="translate(248 871)" font-size="12" font-family="SegoeUI, Segoe UI" opacity="0.5"><tspan x="0" y="0">5,000</tspan></text>
        <text id="_10_000" data-name="10,000" transform="translate(244 825)" font-size="12" font-family="SegoeUI, Segoe UI" opacity="0.5"><tspan x="0" y="0">10,000</tspan></text>
        <text id="_15_000" data-name="15,000" transform="translate(244 779)" font-size="12" font-family="SegoeUI, Segoe UI" opacity="0.5"><tspan x="0" y="0">15,000</tspan></text>
        <text id="_20_000" data-name="20,000" transform="translate(241 733)" font-size="12" font-family="SegoeUI, Segoe UI" opacity="0.5"><tspan x="0" y="0">20,000</tspan></text>
        <text id="_25_000_" data-name="25,000 " transform="translate(239 686)" font-size="12" font-family="SegoeUI, Segoe UI" opacity="0.5"><tspan x="0" y="0">25,000 </tspan></text>
      </g>
    </g>
  </g>
</svg>
