<svg xmlns="http://www.w3.org/2000/svg" width="27" height="27" viewBox="0 0 27 27">
  <g id="chart-bar-32" transform="translate(-0.064 -0.182)">
    <path id="Union_8" data-name="Union 8" d="M21.938,27a1.6,1.6,0,0,1-1.689-1.687V10.125a1.6,1.6,0,0,1,1.689-1.687h3.375A1.594,1.594,0,0,1,27,10.125V25.313A1.594,1.594,0,0,1,25.313,27ZM11.813,27a1.593,1.593,0,0,1-1.687-1.687V1.687A1.594,1.594,0,0,1,11.813,0h3.375a1.594,1.594,0,0,1,1.687,1.687V25.313A1.594,1.594,0,0,1,15.187,27ZM1.687,27A1.594,1.594,0,0,1,0,25.313V18.563a1.6,1.6,0,0,1,1.687-1.689H5.062a1.6,1.6,0,0,1,1.689,1.689v6.749A1.6,1.6,0,0,1,5.062,27Z" transform="translate(0.064 0.182)" fill="#ffc4c4"/>
  </g>
</svg>
