<svg xmlns="http://www.w3.org/2000/svg" width="27.23" height="27.23" viewBox="0 0 27.23 27.23">
  <g id="settings-gear-64" opacity="0.477">
    <path id="Path_108" data-name="Path 108" d="M22.635,8.85l1.872-3.574L22.124,2.893,18.55,4.765a6.1,6.1,0,0,0-1.872-.681L15.317,0h-3.4L10.552,3.914a7.112,7.112,0,0,0-1.7.681L5.276,2.723,2.723,5.276,4.6,8.85a7.112,7.112,0,0,0-.681,1.7L0,11.913v3.4l3.914,1.362c.17.681.511,1.191.681,1.872L2.723,22.124l2.383,2.383L8.68,22.635a6.1,6.1,0,0,0,1.872.681l1.362,3.914h3.4l1.362-3.914c.681-.17,1.191-.511,1.872-.681l3.574,1.872,2.383-2.383-1.872-3.574a6.1,6.1,0,0,0,.681-1.872l3.914-1.362v-3.4l-3.914-1.362A7.112,7.112,0,0,0,22.635,8.85Zm-9.02,9.871a5.015,5.015,0,0,1-5.106-5.106,5.015,5.015,0,0,1,5.106-5.106,5.015,5.015,0,0,1,5.106,5.106A5.015,5.015,0,0,1,13.615,18.721Z" fill="#ffc4c4"/>
  </g>
</svg>
