<svg xmlns="http://www.w3.org/2000/svg" xmlns:xlink="http://www.w3.org/1999/xlink" width="889" height="216" viewBox="0 0 889 216">
  <defs>
    <linearGradient id="linear-gradient" x1="0.5" x2="0.5" y2="1" gradientUnits="objectBoundingBox">
      <stop offset="0" stop-color="#707070" stop-opacity="0.675"/>
      <stop offset="1" stop-color="#fff" stop-opacity="0"/>
    </linearGradient>
    <linearGradient id="linear-gradient-2" x1="0.5" x2="0.5" y2="1" gradientUnits="objectBoundingBox">
      <stop offset="0" stop-color="#ffc4c4"/>
      <stop offset="1" stop-color="#fff" stop-opacity="0"/>
    </linearGradient>
  </defs>
  <g id="Group_1272" data-name="Group 1272" transform="translate(-265 -259)">
    <g id="Group_1271" data-name="Group 1271">
      <g id="Group_1270" data-name="Group 1270">
        <g id="Statistics" transform="translate(8 23)">
          <path id="Chart_Grid" data-name="Chart Grid" d="M0,200V0H.756V199.243h168.58V153.788H.981v-.757H169.336V107.575H.981v-.757H169.336V61.364H.981v-.757H169.336V15.151H.981v-.758H169.336V0h.756V14.394H329.6V0h.756V14.394h161.02V0h.756V14.394H650.885V0h.756V14.394H823.02v.758H651.641V60.606H823.02v.757H651.641v45.454H823.02v.757H651.641V153.03H823.02v.757H651.641v45.455h171.6V0H824V200Zm650.885-.758V153.788H492.132v45.455Zm-159.509,0V153.788H330.356v45.455Zm-161.776,0V153.788H170.092v45.455ZM650.885,153.03V107.575H492.132V153.03Zm-159.509,0V107.575H330.356V153.03Zm-161.776,0V107.575H170.092V153.03Zm321.284-46.212V61.364H492.132v45.454Zm-159.509,0V61.364H330.356v45.454Zm-161.776,0V61.364H170.092v45.454ZM650.885,60.606V15.151H492.132V60.606Zm-159.509,0V15.151H330.356V60.606Zm-161.776,0V15.151H170.092V60.606Z" transform="translate(315 236)" fill="#eaf0f4"/>
          <g id="Total_Views_Graph" data-name="Total Views Graph" transform="translate(311.595 302.153)">
            <path id="Filled.Graph" d="M330,457.07V354.422s92.774,102.054,168.984,105.895c85.031-.865,85.728-52.98,160.449-81.51,62.554-22.4,110.286,38.705,162.609,40.2s88.435-41.88,159.82-44.893c92.488,4.538,166.7,62.482,172.462,65.6V482.07L330,482.145Z" transform="translate(-326.215 -351.078)" opacity="0.7" fill="url(#linear-gradient)"/>
            <path id="Line.Graph" d="M312.953,279.164S408.615,383.1,483.378,384.071s100.33-61.238,160.359-82.211,112.1,40.005,162.223,40.77,98.1-45.812,159.685-44.546,131.987,36.5,170.911,64.291" transform="translate(-308.447 -275.259)" fill="none" stroke="#000" stroke-width="2"/>
            <g id="Jun.Ellipse" transform="translate(824.189 83.945)" fill="#fff" stroke="#000" stroke-width="2">
              <circle cx="3.777" cy="3.777" r="3.777" stroke="none"/>
              <circle cx="3.777" cy="3.777" r="2.777" fill="none"/>
            </g>
            <g id="May.Ellipse" transform="translate(651.631 18.907)" fill="#fff" stroke="#000" stroke-width="2">
              <circle cx="3.777" cy="3.777" r="3.777" stroke="none"/>
              <circle cx="3.777" cy="3.777" r="2.777" fill="none"/>
            </g>
            <g id="Apr.Ellipse" transform="translate(491.94 63.526)" fill="#fff" stroke="#000" stroke-width="2">
              <circle cx="3.777" cy="3.777" r="3.777" stroke="none"/>
              <circle cx="3.777" cy="3.777" r="2.777" fill="none"/>
            </g>
            <g id="Mar.Ellipse" transform="translate(330.735 22.688)" fill="#fff" stroke="#000" stroke-width="2">
              <circle cx="3.777" cy="3.777" r="3.777" stroke="none"/>
              <circle cx="3.777" cy="3.777" r="2.777" fill="none"/>
            </g>
            <g id="Feb.Ellipse" transform="translate(169.531 105.121)" fill="#fff" stroke="#000" stroke-width="2">
              <circle cx="3.777" cy="3.777" r="3.777" stroke="none"/>
              <circle cx="3.777" cy="3.777" r="2.777" fill="none"/>
            </g>
            <g id="Jan.Ellipse" transform="translate(0)" fill="#fff" stroke="#000" stroke-width="2">
              <circle cx="3.777" cy="3.777" r="3.777" stroke="none"/>
              <circle cx="3.777" cy="3.777" r="2.777" fill="none"/>
            </g>
          </g>
          <g id="Group_1249" data-name="Group 1249">
            <text id="Nov" transform="translate(315 449)" font-size="12" font-family="SegoeUI, Segoe UI" opacity="0.5"><tspan x="0" y="0">Nov</tspan></text>
            <text id="Dec" transform="translate(479 449)" font-size="12" font-family="SegoeUI, Segoe UI" opacity="0.5"><tspan x="0" y="0">Dec</tspan></text>
            <text id="Jan" transform="translate(638 449)" font-size="12" font-family="SegoeUI, Segoe UI" opacity="0.5"><tspan x="0" y="0">Jan</tspan></text>
            <text id="Feb" transform="translate(801 449)" font-size="12" font-family="SegoeUI, Segoe UI" opacity="0.5"><tspan x="0" y="0">Feb</tspan></text>
            <text id="Mar" transform="translate(960 449)" font-size="12" font-family="SegoeUI, Segoe UI" opacity="0.5"><tspan x="0" y="0">Mar</tspan></text>
            <text id="Apr" transform="translate(1127 449)" font-size="12" font-family="SegoeUI, Segoe UI" opacity="0.5"><tspan x="0" y="0">Apr</tspan></text>
          </g>
          <text id="_200" data-name="200" transform="translate(262 435)" font-size="12" font-family="SegoeUI, Segoe UI" opacity="0.5"><tspan x="0" y="0">200</tspan></text>
          <text id="_400" data-name="400" transform="translate(261 389)" font-size="12" font-family="SegoeUI, Segoe UI" opacity="0.5"><tspan x="0" y="0">400</tspan></text>
          <text id="_600" data-name="600" transform="translate(261 343)" font-size="12" font-family="SegoeUI, Segoe UI" opacity="0.5"><tspan x="0" y="0">600</tspan></text>
          <text id="_800" data-name="800" transform="translate(262 297)" font-size="12" font-family="SegoeUI, Segoe UI" opacity="0.5"><tspan x="0" y="0">800</tspan></text>
          <text id="_1000" data-name="1000" transform="translate(257 250)" font-size="12" font-family="SegoeUI, Segoe UI" opacity="0.5"><tspan x="0" y="0">1000</tspan></text>
        </g>
        <g id="Products_Sold_Graph" data-name="Products Sold Graph" transform="translate(319.594 284.314)">
          <path id="Filled.Graph-2" data-name="Filled.Graph" d="M330,444.117V376.9s95.053,44.091,171,46.86c82.124-2.684,96.344-21.553,160.312-46.86,54.664-21.094,109.178-26.883,161.5-25.392S920.49,375.781,982.3,378.116c109.034-9.408,164.663-56.973,172.03-76.839v167.84L330,469.191Z" transform="translate(-326.217 -297.286)" opacity="0.7" fill="url(#linear-gradient-2)"/>
          <path id="Line.Graph-2" data-name="Line.Graph" d="M313,321.819s94.44,45.142,169.11,46.114,103.352-23.3,160.545-46.054S754.219,295.236,804.276,296s98.719,24.615,160.223,25.88,161.007-41.226,172.071-76.642" transform="translate(-308.461 -242.033)" fill="none" stroke="#ffc4c4" stroke-width="2"/>
          <g id="Jun.Ellipse-2" data-name="Jun.Ellipse" transform="translate(823.779)" fill="#fff" stroke="#ffc4c4" stroke-width="2">
            <circle cx="3.777" cy="3.777" r="3.777" stroke="none"/>
            <circle cx="3.777" cy="3.777" r="2.777" fill="none"/>
          </g>
          <g id="May.Ellipse-2" data-name="May.Ellipse" transform="translate(651.307 76.383)" fill="#fff" stroke="#ffc4c4" stroke-width="2">
            <circle cx="3.777" cy="3.777" r="3.777" stroke="none"/>
            <circle cx="3.777" cy="3.777" r="2.777" fill="none"/>
          </g>
          <g id="Apr.Ellipse-2" data-name="Apr.Ellipse" transform="translate(491.696 50.67)" fill="#fff" stroke="#ffc4c4" stroke-width="2">
            <circle cx="3.777" cy="3.777" r="3.777" stroke="none"/>
            <circle cx="3.777" cy="3.777" r="2.777" fill="none"/>
          </g>
          <g id="Mar.Ellipse-2" data-name="Mar.Ellipse" transform="translate(330.571 76.383)" fill="#fff" stroke="#ffc4c4" stroke-width="2">
            <circle cx="3.777" cy="3.777" r="3.777" stroke="none"/>
            <circle cx="3.777" cy="3.777" r="2.777" fill="none"/>
          </g>
          <g id="Feb.Ellipse-2" data-name="Feb.Ellipse" transform="translate(170.202 122.515)" fill="#fff" stroke="#ffc4c4" stroke-width="2">
            <circle cx="3.777" cy="3.777" r="3.777" stroke="none"/>
            <circle cx="3.777" cy="3.777" r="2.777" fill="none"/>
          </g>
          <g id="Jan.Ellipse-2" data-name="Jan.Ellipse" transform="translate(0 75.626)" fill="#fff" stroke="#ffc4c4" stroke-width="2">
            <circle cx="3.777" cy="3.777" r="3.777" stroke="none"/>
            <circle cx="3.777" cy="3.777" r="2.777" fill="none"/>
          </g>
        </g>
      </g>
    </g>
  </g>
</svg>
