<svg xmlns="http://www.w3.org/2000/svg" width="12" height="32" viewBox="0 0 12 32">
  <g id="Icons_new_Arranged_Names" data-name="Icons new Arranged Names" transform="translate(-10)">
    <g id="_82_Thermometer_Half_Full" data-name="82 Thermometer Half Full">
      <path id="Oval_245" data-name="Oval 245" d="M16,30a4,4,0,0,0,2-7.465V4a2,2,0,1,0-4,0v18.53A4,4,0,0,0,16,30Zm0-1a3,3,0,0,1-.986-5.834A1.019,1.019,0,0,1,15,23V13a1,1,0,1,1,2,0V23a.993.993,0,0,1-.014.168A3,3,0,0,1,16,29Zm0,3a6,6,0,0,1-4-10.472V4.006a4,4,0,1,1,8,0V21.528A6,6,0,0,1,16,32Zm0,0" fill-rule="evenodd"/>
    </g>
  </g>
</svg>
