<svg xmlns="http://www.w3.org/2000/svg" width="20" height="28" viewBox="0 0 20 28">
  <g id="_x30_1" transform="translate(-6 -2)">
    <g id="Group_1248" data-name="Group 1248">
      <path id="Path_1227" data-name="Path 1227" d="M16.707,2.293a1,1,0,0,0-1.414,0C14.914,2.672,6,11.682,6,20a10,10,0,0,0,20,0C26,11.682,17.087,2.672,16.707,2.293ZM16,28a8.009,8.009,0,0,1-8-8c0-6.208,5.925-13.261,8-15.541C18.076,6.737,24,13.784,24,20A8.009,8.009,0,0,1,16,28Z"/>
      <path id="Path_1228" data-name="Path 1228" d="M16,24a4.023,4.023,0,0,1-4-4.036,1,1,0,0,0-2,0A6.025,6.025,0,0,0,16,26a1,1,0,0,0,0-2Z"/>
    </g>
  </g>
</svg>
